<?xml version="1.0" encoding="UTF-8" standalone="no"?>
<svg
   xmlns:dc="http://purl.org/dc/elements/1.1/"
   xmlns:cc="http://creativecommons.org/ns#"
   xmlns:rdf="http://www.w3.org/1999/02/22-rdf-syntax-ns#"
   xmlns:svg="http://www.w3.org/2000/svg"
   xmlns="http://www.w3.org/2000/svg"
   xmlns:sodipodi="http://sodipodi.sourceforge.net/DTD/sodipodi-0.dtd"
   xmlns:inkscape="http://www.inkscape.org/namespaces/inkscape"
   version="1.0"
   width="512"
   height="512"
   viewBox="0 0 384 384.00001"
   preserveAspectRatio="xMidYMid meet"
   id="svg22"
   sodipodi:docname="face_texture.svg"
   inkscape:version="0.92.4 5da689c313, 2019-01-14">
  <defs
     id="defs26" />
  <sodipodi:namedview
     pagecolor="#5fcaf6"
     bordercolor="#666666"
     borderopacity="1"
     objecttolerance="10"
     gridtolerance="10"
     guidetolerance="10"
     inkscape:pageopacity="0"
     inkscape:pageshadow="2"
     inkscape:window-width="1920"
     inkscape:window-height="1054"
     id="namedview24"
     showgrid="false"
     fit-margin-top="10"
     fit-margin-left="10"
     fit-margin-right="10"
     fit-margin-bottom="10"
     inkscape:pagecheckerboard="true"
     inkscape:zoom="1.4142136"
     inkscape:cx="100.44266"
     inkscape:cy="310.61244"
     inkscape:window-x="1920"
     inkscape:window-y="0"
     inkscape:window-maximized="1"
     inkscape:current-layer="svg22"
     units="px" />
  <metadata
     id="metadata2">
Created by potrace 1.16, written by Peter Selinger 2001-2019
<rdf:RDF>
  <cc:Work
     rdf:about="">
    <dc:format>image/svg+xml</dc:format>
    <dc:type
       rdf:resource="http://purl.org/dc/dcmitype/StillImage" />
    <dc:title></dc:title>
  </cc:Work>
</rdf:RDF>
</metadata>
  <rect
     id="rect17"
     width="512"
     height="512"
     x="0"
     y="0"
     style="stroke-width:0.75;fill:#5fcaf6;fill-opacity:1"
     inkscape:label="bg" />
  <g
     transform="matrix(0.1,0,0,-0.06512994,133.93513,92.487332)"
     id="g20"
     style="fill:#000000;stroke:none">
    <path
       d="m 478,1163 c -10,-2 -18,-9 -18,-15 0,-6 10,-8 23,-4 12,3 37,6 55,6 17,0 32,5 32,10 0,10 -59,12 -92,3 z"
       id="path4"
       inkscape:connector-curvature="0" />
    <rect
       id="rect4538-3"
       width="59.729874"
       height="62.100105"
       x="650.54126"
       y="-1003.0674"
       style="fill:#ffffff;fill-opacity:1;stroke:none;stroke-width:7.5"
       inkscape:label="right_pupil"
       transform="scale(1,-1)" />
    <rect
       id="rect4538"
       width="59.729874"
       height="62.100105"
       x="504.53491"
       y="-1001.1713"
       style="fill:#ffffff;fill-opacity:1;stroke:none;stroke-width:7.5"
       inkscape:label="left_pupil"
       transform="scale(1,-1)" />
    <path
       d="m 640,1110 c 0,-5 8,-10 18,-10 9,0 30,-7 46,-15 34,-18 36,-18 36,-4 0,11 -60,39 -85,39 -8,0 -15,-4 -15,-10 z"
       id="path6"
       inkscape:connector-curvature="0" />
    <path
       d="m 495,1010 c -26,-29 -24,-79 4,-102 29,-23 32,-23 65,3 32,25 35,70 6,99 -25,25 -52,25 -75,0 z m 59,-26 c 7,-19 -1,-34 -19,-34 -18,0 -26,25 -12,39 15,15 24,14 31,-5 z"
       id="path8"
       inkscape:connector-curvature="0" />
    <path
       d="m 641,1004 c -12,-15 -21,-35 -21,-45 0,-24 35,-59 58,-59 49,0 71,85 30,114 -31,22 -43,20 -67,-10 z m 59,-23 c 0,-11 -4,-22 -9,-25 -12,-8 -34,21 -26,34 11,17 35,11 35,-9 z"
       id="path10"
       inkscape:connector-curvature="0" />
    <path
       d="m 108,859 c -27,-29 -25,-69 7,-124 16,-27 35,-56 42,-63 7,-7 17,-21 22,-30 5,-9 13,-14 16,-10 4,4 -10,34 -30,67 -43,70 -58,146 -31,157 26,10 63,-4 101,-37 39,-34 60,-32 29,2 -26,28 -83,57 -114,56 -14,0 -33,-9 -42,-18 z"
       id="path12"
       inkscape:connector-curvature="0" />
    <path
       d="m 1010,833 c -23,-9 -102,-75 -96,-80 3,-3 28,11 55,32 113,82 138,-7 33,-117 -45,-47 -25,-51 21,-5 94,94 85,206 -13,170 z"
       id="path14"
       inkscape:connector-curvature="0" />
    <path
       d="m 200,752 c 0,-6 20,-36 44,-69 162,-213 461,-213 696,0 60,55 41,58 -22,3 -99,-87 -243,-146 -354,-146 -119,0 -244,66 -312,165 -33,49 -52,66 -52,47 z"
       id="path16"
       inkscape:connector-curvature="0"
       inkscape:label="path16" />
    <path
       d="m 330,343 c 0,-29 74,-91 118,-99 43,-8 133,1 162,16 34,18 20,20 -40,4 -93,-24 -180,3 -221,70 -17,27 -19,28 -19,9 z"
       id="path18"
       inkscape:connector-curvature="0" />
  </g>
</svg>
