<?xml version="1.0" standalone="no"?>
<!DOCTYPE svg PUBLIC "-//W3C//DTD SVG 20010904//EN"
 "http://www.w3.org/TR/2001/REC-SVG-20010904/DTD/svg10.dtd">
<svg version="1.0" xmlns="http://www.w3.org/2000/svg"
 width="126.000000pt" height="179.000000pt" viewBox="0 0 126.000000 179.000000"
 preserveAspectRatio="xMidYMid meet">
<metadata>
Created by potrace 1.16, written by Peter Selinger 2001-2019
</metadata>
<g transform="translate(0.000000,179.000000) scale(0.100000,-0.100000)"
fill="#000000" stroke="none">
<path d="M478 1163 c-10 -2 -18 -9 -18 -15 0 -6 10 -8 23 -4 12 3 37 6 55 6
17 0 32 5 32 10 0 10 -59 12 -92 3z"/>
<path d="M640 1110 c0 -5 8 -10 18 -10 9 0 30 -7 46 -15 34 -18 36 -18 36 -4
0 11 -60 39 -85 39 -8 0 -15 -4 -15 -10z"/>
<path d="M495 1010 c-26 -29 -24 -79 4 -102 29 -23 32 -23 65 3 32 25 35 70 6
99 -25 25 -52 25 -75 0z m59 -26 c7 -19 -1 -34 -19 -34 -18 0 -26 25 -12 39
15 15 24 14 31 -5z"/>
<path d="M641 1004 c-12 -15 -21 -35 -21 -45 0 -24 35 -59 58 -59 49 0 71 85
30 114 -31 22 -43 20 -67 -10z m59 -23 c0 -11 -4 -22 -9 -25 -12 -8 -34 21
-26 34 11 17 35 11 35 -9z"/>
<path d="M108 859 c-27 -29 -25 -69 7 -124 16 -27 35 -56 42 -63 7 -7 17 -21
22 -30 5 -9 13 -14 16 -10 4 4 -10 34 -30 67 -43 70 -58 146 -31 157 26 10 63
-4 101 -37 39 -34 60 -32 29 2 -26 28 -83 57 -114 56 -14 0 -33 -9 -42 -18z"/>
<path d="M1010 833 c-23 -9 -102 -75 -96 -80 3 -3 28 11 55 32 113 82 138 -7
33 -117 -45 -47 -25 -51 21 -5 94 94 85 206 -13 170z"/>
<path d="M200 752 c0 -6 20 -36 44 -69 162 -213 461 -213 696 0 60 55 41 58
-22 3 -99 -87 -243 -146 -354 -146 -119 0 -244 66 -312 165 -33 49 -52 66 -52
47z"/>
<path d="M330 343 c0 -29 74 -91 118 -99 43 -8 133 1 162 16 34 18 20 20 -40
4 -93 -24 -180 3 -221 70 -17 27 -19 28 -19 9z"/>
</g>
</svg>
